# xmcd
#
# Track frame offsets:
#	150
#	14022
#	26842
#	40547
#	55537
#	74942
#	94605
#	108915
#	122340
#	135730
#
# Disc length: 1981 seconds
#
# Revision: 1
# Processed by: cddbd v1.5.2PL0 Copyright (c) Steve Scherf et al.
# Submitted via: audiograbber 1.83.01
#
DISCID=8207bb0a
DTITLE=Philadelphia Music Works - A Melodium Christmas
DYEAR=1900
DGENRE=
TTITLE0=Angels We Heard On High
TTITLE1=Hark The Herald Angels Sing
TTITLE2=O Come All Ye Faithful
TTITLE3=Good King Wencesias
TTITLE4=The First Noel
TTITLE5=We Three Kings
TTITLE6=What Child I*s This
TTITLE7=God Rest Ye Merry Gentlemen
TTITLE8=Silent Night
TTITLE9=The Covbenty Carol
EXTD=
EXTT0=
EXTT1=
EXTT2=
EXTT3=
EXTT4=
EXTT5=
EXTT6=
EXTT7=
EXTT8=
EXTT9=
PLAYORDER=
